<?xml version="1.0" encoding="UTF-8" standalone="no"?>
<svg
   height="16"
   viewBox="0 0 16 16"
   width="16"
   version="1.1"
   id="svg179"
   xmlns="http://www.w3.org/2000/svg"
   xmlns:svg="http://www.w3.org/2000/svg">
  <defs
     id="defs183" />
  <path
     d="m8.074219 0c-1.203125-.0117188-2.40625.285156-3.492188.890625-.480469.269531-.652343.878906-.382812 1.359375.269531.484375.878906.65625 1.359375.386719 1.550781-.867188 3.4375-.847657 4.972656.050781 1.53125.898438 2.46875 2.535156 2.46875 4.3125v1c0 .550781.449219 1 1 1s1-.449219 1-1v-1c0-.019531 0-.039062-.003906-.054688-.019532-2.460937-1.332032-4.738281-3.457032-5.984374-1.070312-.628907-2.265624-.9492192-3.46875-.960938zm-5.199219 2.832031c-.066406 0-.132812.007813-.195312.023438-.257813.058593-.484376.21875-.625.445312-.6875 1.109375-1.054688 2.390625-1.054688 3.699219v5.0625c0 .550781.449219 1 1 1s1-.449219 1-1v-5.0625c0-.933594.261719-1.851562.753906-2.644531.292969-.46875.148438-1.082031-.320312-1.375-.167969-.105469-.363282-.15625-.558594-.148438zm5.125.167969c-2.199219 0-4 1.800781-4 4v1c0 .550781.449219 1 1 1s1-.449219 1-1v-1c0-1.117188.882812-2 2-2s2 .882812 2 2v5s.007812.441406.175781.941406.5 1.148438 1.117188 1.765625c.390625.390625 1.023437.390625 1.414062 0s.390625-1.023437 0-1.414062c-.382812-.382813-.550781-.734375-.632812-.984375s-.074219-.308594-.074219-.308594v-5c0-2.199219-1.800781-4-4-4zm0 3c-.550781 0-1 .449219-1 1v5s0 .59375.144531 1.320312c.144531.726563.414063 1.652344 1.148438 2.386719.390625.390625 1.023437.390625 1.414062 0s.390625-1.023437 0-1.414062c-.265625-.265625-.496093-.839844-.601562-1.363281-.105469-.523438-.105469-.929688-.105469-.929688v-5c0-.550781-.449219-1-1-1zm-3 4c-.550781 0-1 .449219-1 1v3c0 .550781.449219 1 1 1s1-.449219 1-1v-3c0-.550781-.449219-1-1-1zm9 0c-.550781 0-1 .449219-1 1s.449219 1 1 1 1-.449219 1-1-.449219-1-1-1zm0 0"
     fill="#2e3434"
     id="path177"
     style="stroke:#d9d9d9;stroke-opacity:1;stroke-width:0.62362205;stroke-dasharray:none" />
</svg>
