<?xml version="1.0" encoding="UTF-8" standalone="no"?>
<svg
   height="16"
   viewBox="0 0 16 16"
   width="16"
   version="1.1"
   id="svg1"
   sodipodi:docname="replaygain.svg"
   inkscape:version="1.3.2 (1:1.3.2+202311252150+091e20ef0f)"
   inkscape:export-filename="replaygain.png"
   inkscape:export-xdpi="144"
   inkscape:export-ydpi="144"
   xmlns:inkscape="http://www.inkscape.org/namespaces/inkscape"
   xmlns:sodipodi="http://sodipodi.sourceforge.net/DTD/sodipodi-0.dtd"
   xmlns="http://www.w3.org/2000/svg"
   xmlns:svg="http://www.w3.org/2000/svg">
  <defs
     id="defs1" />
  <sodipodi:namedview
     id="namedview1"
     pagecolor="#ffffff"
     bordercolor="#666666"
     borderopacity="1.0"
     inkscape:showpageshadow="2"
     inkscape:pageopacity="0.0"
     inkscape:pagecheckerboard="0"
     inkscape:deskcolor="#d1d1d1"
     showgrid="false"
     inkscape:zoom="53.644715"
     inkscape:cx="7.4937484"
     inkscape:cy="7.9970599"
     inkscape:current-layer="svg1" />
  <path
     id="path3"
     d="M 8 7 L 8 9 L 16 9 L 16 7 L 8 7 z "
     style="fill:#4d4d4d" />
  <path
     d="M 7,1.007812 C 6.703125,1.003906 6.421875,1.132812 6.230469,1.359375 L 3,5 H 2 C 0.90625,5 0,5.84375 0,7 v 2 c 0,1.089844 0.910156,2 2,2 h 1 l 3.230469,3.640625 C 6.441406,14.894531 6.722656,15.003906 7,15 Z"
     id="path2"
     style="fill:#4d4d4d" />
  <path
     d="M 11,0 V 4 L 9,2 8,3 12,7 16,3 15,2 13,4 V 0 Z"
     id="path1"
     sodipodi:nodetypes="cccccccccc"
     style="fill:#4d4d4d" />
  <path
     d="M 11,16.000001 V 12 L 9,14.000001 8,13 12,9 16,13 15,14.000001 13,12 v 4.000001 z"
     id="path5"
     sodipodi:nodetypes="cccccccccc"
     style="fill:#4d4d4d" />
</svg>
